<mxfile host="app.diagrams.net" modified="2023-06-18T08:21:41.975Z" agent="Mozilla/5.0 (Windows NT 10.0; Win64; x64) AppleWebKit/537.36 (KHTML, like Gecko) Chrome/114.0.0.0 Safari/537.36 Edg/114.0.1823.51" etag="tHFT5OU6llU_hx0IKhE0" version="21.4.0" type="google">
  <diagram id="R2lEEEUBdFMjLlhIrx00" name="Page-1">
    <mxGraphModel dx="2510" dy="955" grid="1" gridSize="10" guides="1" tooltips="1" connect="1" arrows="1" fold="1" page="1" pageScale="1" pageWidth="850" pageHeight="1100" math="0" shadow="0" extFonts="Permanent Marker^https://fonts.googleapis.com/css?family=Permanent+Marker">
      <root>
        <mxCell id="0" />
        <mxCell id="1" parent="0" />
        <mxCell id="2W_x00pPGA0y_TqVCKb4-1" value="MEMBER" style="swimlane;whiteSpace=wrap;html=1;startSize=23;" parent="1" vertex="1">
          <mxGeometry x="320" y="140" width="200" height="260" as="geometry" />
        </mxCell>
        <mxCell id="2W_x00pPGA0y_TqVCKb4-6" value="ID&lt;span style=&quot;white-space: pre;&quot;&gt;&#x9;&lt;/span&gt;(CHAR2)" style="text;html=1;strokeColor=none;fillColor=none;align=center;verticalAlign=middle;whiteSpace=wrap;rounded=0;" parent="2W_x00pPGA0y_TqVCKb4-1" vertex="1">
          <mxGeometry x="10" y="40" width="180" height="30" as="geometry" />
        </mxCell>
        <mxCell id="2W_x00pPGA0y_TqVCKb4-7" value="PW1&lt;span style=&quot;&quot;&gt;&lt;span style=&quot;white-space: pre;&quot;&gt;&amp;nbsp;&amp;nbsp;&amp;nbsp;&amp;nbsp;&lt;/span&gt;&lt;/span&gt;(CHAR2)" style="text;html=1;strokeColor=none;fillColor=none;align=center;verticalAlign=middle;whiteSpace=wrap;rounded=0;" parent="2W_x00pPGA0y_TqVCKb4-1" vertex="1">
          <mxGeometry x="10" y="70" width="180" height="30" as="geometry" />
        </mxCell>
        <mxCell id="2W_x00pPGA0y_TqVCKb4-8" value="PW2&lt;span style=&quot;white-space: pre;&quot;&gt;&#x9;&lt;/span&gt;(NUMBER)&amp;nbsp;" style="text;html=1;strokeColor=none;fillColor=none;align=center;verticalAlign=middle;whiteSpace=wrap;rounded=0;" parent="2W_x00pPGA0y_TqVCKb4-1" vertex="1">
          <mxGeometry x="10" y="100" width="180" height="30" as="geometry" />
        </mxCell>
        <mxCell id="2W_x00pPGA0y_TqVCKb4-11" value="POINT&lt;span style=&quot;&quot;&gt;&lt;span style=&quot;white-space: pre;&quot;&gt;&amp;nbsp;&amp;nbsp;&amp;nbsp;&amp;nbsp;&lt;/span&gt;&lt;/span&gt;(NUMBER)&amp;nbsp;" style="text;html=1;strokeColor=none;fillColor=none;align=center;verticalAlign=middle;whiteSpace=wrap;rounded=0;" parent="2W_x00pPGA0y_TqVCKb4-1" vertex="1">
          <mxGeometry x="10" y="130" width="180" height="30" as="geometry" />
        </mxCell>
        <mxCell id="2W_x00pPGA0y_TqVCKb4-15" value="RANKING (NUMBER)" style="text;html=1;strokeColor=none;fillColor=none;align=center;verticalAlign=middle;whiteSpace=wrap;rounded=0;" parent="2W_x00pPGA0y_TqVCKb4-1" vertex="1">
          <mxGeometry x="10" y="170" width="180" height="30" as="geometry" />
        </mxCell>
        <mxCell id="2W_x00pPGA0y_TqVCKb4-16" value="STORE" style="swimlane;whiteSpace=wrap;html=1;" parent="1" vertex="1">
          <mxGeometry x="-210" y="140" width="200" height="260" as="geometry" />
        </mxCell>
        <mxCell id="2W_x00pPGA0y_TqVCKb4-36" value="ITEM_ID&lt;span style=&quot;white-space: pre;&quot;&gt;&#x9;&lt;/span&gt;(CHAR2)&lt;span style=&quot;white-space: pre;&quot;&gt;&#x9;&lt;span style=&quot;white-space: pre;&quot;&gt;&#x9;&lt;/span&gt;&lt;/span&gt;" style="text;html=1;strokeColor=none;fillColor=none;align=center;verticalAlign=middle;whiteSpace=wrap;rounded=0;" parent="2W_x00pPGA0y_TqVCKb4-16" vertex="1">
          <mxGeometry x="10" y="40" width="180" height="30" as="geometry" />
        </mxCell>
        <mxCell id="2W_x00pPGA0y_TqVCKb4-37" value="INFO&lt;span style=&quot;white-space: pre;&quot;&gt;&#x9;&lt;/span&gt;(CHAR2)" style="text;html=1;strokeColor=none;fillColor=none;align=center;verticalAlign=middle;whiteSpace=wrap;rounded=0;" parent="2W_x00pPGA0y_TqVCKb4-16" vertex="1">
          <mxGeometry x="9" y="190" width="180" height="30" as="geometry" />
        </mxCell>
        <mxCell id="2W_x00pPGA0y_TqVCKb4-38" value="PRICE&lt;span style=&quot;white-space: pre;&quot;&gt;&#x9;&lt;/span&gt;(NUMBER)" style="text;html=1;strokeColor=none;fillColor=none;align=center;verticalAlign=middle;whiteSpace=wrap;rounded=0;" parent="2W_x00pPGA0y_TqVCKb4-16" vertex="1">
          <mxGeometry x="10" y="120" width="180" height="30" as="geometry" />
        </mxCell>
        <mxCell id="2W_x00pPGA0y_TqVCKb4-22" value="거래내역" style="swimlane;whiteSpace=wrap;html=1;" parent="1" vertex="1">
          <mxGeometry x="40" y="140" width="200" height="260" as="geometry" />
        </mxCell>
        <mxCell id="2W_x00pPGA0y_TqVCKb4-29" value="" style="endArrow=none;html=1;rounded=0;exitX=0;exitY=0.75;exitDx=0;exitDy=0;" parent="2W_x00pPGA0y_TqVCKb4-22" source="2W_x00pPGA0y_TqVCKb4-22" edge="1">
          <mxGeometry width="50" height="50" relative="1" as="geometry">
            <mxPoint x="-50" y="190" as="sourcePoint" />
            <mxPoint x="-30" y="140" as="targetPoint" />
          </mxGeometry>
        </mxCell>
        <mxCell id="2W_x00pPGA0y_TqVCKb4-18" value="MEMBER_ID&lt;span style=&quot;white-space: pre;&quot;&gt;&#x9;&lt;/span&gt;(CHAR2)&lt;span style=&quot;white-space: pre;&quot;&gt;&#x9;&lt;span style=&quot;white-space: pre;&quot;&gt;&#x9;&lt;/span&gt;F&lt;/span&gt;K" style="text;html=1;strokeColor=none;fillColor=none;align=center;verticalAlign=middle;whiteSpace=wrap;rounded=0;" parent="2W_x00pPGA0y_TqVCKb4-22" vertex="1">
          <mxGeometry x="10" y="40" width="180" height="30" as="geometry" />
        </mxCell>
        <mxCell id="2W_x00pPGA0y_TqVCKb4-32" value="ITEM_ID&lt;span style=&quot;white-space: pre;&quot;&gt;&#x9;&lt;/span&gt;(CHAR2)&lt;span style=&quot;white-space: pre;&quot;&gt;&#x9;&lt;span style=&quot;white-space: pre;&quot;&gt;&#x9;&lt;/span&gt;F&lt;/span&gt;K" style="text;html=1;strokeColor=none;fillColor=none;align=center;verticalAlign=middle;whiteSpace=wrap;rounded=0;" parent="2W_x00pPGA0y_TqVCKb4-22" vertex="1">
          <mxGeometry x="10" y="80" width="180" height="30" as="geometry" />
        </mxCell>
        <mxCell id="2W_x00pPGA0y_TqVCKb4-33" value="ITEM_COUNT (NUMBER)&lt;span style=&quot;white-space: pre;&quot;&gt;&#x9;&lt;/span&gt;" style="text;html=1;strokeColor=none;fillColor=none;align=center;verticalAlign=middle;whiteSpace=wrap;rounded=0;" parent="2W_x00pPGA0y_TqVCKb4-22" vertex="1">
          <mxGeometry x="10" y="120" width="180" height="30" as="geometry" />
        </mxCell>
        <mxCell id="2W_x00pPGA0y_TqVCKb4-56" value="SUM (NUMBER)" style="text;html=1;strokeColor=none;fillColor=none;align=center;verticalAlign=middle;whiteSpace=wrap;rounded=0;" parent="2W_x00pPGA0y_TqVCKb4-22" vertex="1">
          <mxGeometry x="10" y="160" width="180" height="30" as="geometry" />
        </mxCell>
        <mxCell id="2W_x00pPGA0y_TqVCKb4-57" value="SYSDATE(VARCHAR2)" style="text;html=1;strokeColor=none;fillColor=none;align=center;verticalAlign=middle;whiteSpace=wrap;rounded=0;" parent="2W_x00pPGA0y_TqVCKb4-22" vertex="1">
          <mxGeometry x="10" y="200" width="180" height="30" as="geometry" />
        </mxCell>
        <mxCell id="2W_x00pPGA0y_TqVCKb4-23" value="" style="endArrow=none;html=1;rounded=0;" parent="1" edge="1">
          <mxGeometry width="50" height="50" relative="1" as="geometry">
            <mxPoint x="240" y="290" as="sourcePoint" />
            <mxPoint x="320" y="290" as="targetPoint" />
          </mxGeometry>
        </mxCell>
        <mxCell id="2W_x00pPGA0y_TqVCKb4-24" value="" style="endArrow=none;html=1;rounded=0;" parent="1" edge="1">
          <mxGeometry width="50" height="50" relative="1" as="geometry">
            <mxPoint x="-10" y="280" as="sourcePoint" />
            <mxPoint x="40" y="280" as="targetPoint" />
          </mxGeometry>
        </mxCell>
        <mxCell id="2W_x00pPGA0y_TqVCKb4-25" value="" style="endArrow=none;html=1;rounded=0;" parent="1" edge="1">
          <mxGeometry width="50" height="50" relative="1" as="geometry">
            <mxPoint x="240" y="240" as="sourcePoint" />
            <mxPoint x="280" y="290" as="targetPoint" />
          </mxGeometry>
        </mxCell>
        <mxCell id="2W_x00pPGA0y_TqVCKb4-26" value="" style="endArrow=none;html=1;rounded=0;" parent="1" edge="1">
          <mxGeometry width="50" height="50" relative="1" as="geometry">
            <mxPoint x="240" y="340" as="sourcePoint" />
            <mxPoint x="280" y="290" as="targetPoint" />
          </mxGeometry>
        </mxCell>
        <mxCell id="2W_x00pPGA0y_TqVCKb4-28" value="" style="endArrow=none;html=1;rounded=0;" parent="1" edge="1">
          <mxGeometry width="50" height="50" relative="1" as="geometry">
            <mxPoint x="40" y="240" as="sourcePoint" />
            <mxPoint x="10" y="280" as="targetPoint" />
          </mxGeometry>
        </mxCell>
        <mxCell id="2W_x00pPGA0y_TqVCKb4-55" value="&amp;nbsp; STORAGE" style="swimlane;whiteSpace=wrap;html=1;startSize=23;" parent="1" vertex="1">
          <mxGeometry x="610" y="140" width="200" height="260" as="geometry" />
        </mxCell>
        <mxCell id="2W_x00pPGA0y_TqVCKb4-60" value="ITEM&lt;span style=&quot;white-space: pre;&quot;&gt;&#x9;&lt;/span&gt;(미정)" style="text;html=1;strokeColor=none;fillColor=none;align=center;verticalAlign=middle;whiteSpace=wrap;rounded=0;" parent="2W_x00pPGA0y_TqVCKb4-55" vertex="1">
          <mxGeometry x="10" y="160" width="180" height="30" as="geometry" />
        </mxCell>
        <mxCell id="2W_x00pPGA0y_TqVCKb4-59" value="ITEM&lt;span style=&quot;white-space: pre;&quot;&gt;&#x9;&lt;/span&gt;(미정)" style="text;html=1;strokeColor=none;fillColor=none;align=center;verticalAlign=middle;whiteSpace=wrap;rounded=0;" parent="2W_x00pPGA0y_TqVCKb4-55" vertex="1">
          <mxGeometry x="10" y="115" width="180" height="30" as="geometry" />
        </mxCell>
        <mxCell id="2W_x00pPGA0y_TqVCKb4-13" value="ITEM&lt;span style=&quot;white-space: pre;&quot;&gt;&#x9;&lt;/span&gt;(미정)" style="text;html=1;strokeColor=none;fillColor=none;align=center;verticalAlign=middle;whiteSpace=wrap;rounded=0;" parent="2W_x00pPGA0y_TqVCKb4-55" vertex="1">
          <mxGeometry x="10" y="70" width="180" height="30" as="geometry" />
        </mxCell>
        <mxCell id="2W_x00pPGA0y_TqVCKb4-61" value="MEMBER_ID&lt;span style=&quot;white-space: pre;&quot;&gt;&#x9;&lt;/span&gt;(CHAR2)&lt;span style=&quot;white-space: pre;&quot;&gt;&#x9;&lt;span style=&quot;white-space: pre;&quot;&gt;&#x9;&lt;/span&gt;F&lt;/span&gt;K" style="text;html=1;strokeColor=none;fillColor=none;align=center;verticalAlign=middle;whiteSpace=wrap;rounded=0;" parent="2W_x00pPGA0y_TqVCKb4-55" vertex="1">
          <mxGeometry x="10" y="40" width="180" height="30" as="geometry" />
        </mxCell>
        <mxCell id="2W_x00pPGA0y_TqVCKb4-64" value="" style="endArrow=none;html=1;rounded=0;entryX=0;entryY=0.5;entryDx=0;entryDy=0;exitX=1;exitY=0.5;exitDx=0;exitDy=0;" parent="1" source="2W_x00pPGA0y_TqVCKb4-1" target="2W_x00pPGA0y_TqVCKb4-55" edge="1">
          <mxGeometry width="50" height="50" relative="1" as="geometry">
            <mxPoint x="420" y="180" as="sourcePoint" />
            <mxPoint x="470" y="130" as="targetPoint" />
          </mxGeometry>
        </mxCell>
        <mxCell id="2W_x00pPGA0y_TqVCKb4-66" value="" style="endArrow=none;html=1;rounded=0;" parent="1" edge="1">
          <mxGeometry width="50" height="50" relative="1" as="geometry">
            <mxPoint x="419.5" y="480" as="sourcePoint" />
            <mxPoint x="419.5" y="400" as="targetPoint" />
          </mxGeometry>
        </mxCell>
        <mxCell id="2W_x00pPGA0y_TqVCKb4-70" value="거래내역" style="swimlane;whiteSpace=wrap;html=1;" parent="1" vertex="1">
          <mxGeometry x="310" y="480" width="210" height="321" as="geometry" />
        </mxCell>
        <mxCell id="2W_x00pPGA0y_TqVCKb4-72" value="MEMBER_ID&lt;span style=&quot;white-space: pre;&quot;&gt;&#x9;&lt;/span&gt;(CHAR2)&lt;span style=&quot;white-space: pre;&quot;&gt;&#x9;&lt;span style=&quot;white-space: pre;&quot;&gt;&#x9;&lt;/span&gt;F&lt;/span&gt;K" style="text;html=1;strokeColor=none;fillColor=none;align=center;verticalAlign=middle;whiteSpace=wrap;rounded=0;" parent="2W_x00pPGA0y_TqVCKb4-70" vertex="1">
          <mxGeometry x="10" y="40" width="180" height="30" as="geometry" />
        </mxCell>
        <mxCell id="2W_x00pPGA0y_TqVCKb4-73" value="ACCOUNT_NUMBER&lt;br&gt;(CHAR2)&lt;span style=&quot;white-space: pre;&quot;&gt;&#x9;&lt;span style=&quot;white-space: pre;&quot;&gt;&#x9;&lt;/span&gt;F&lt;/span&gt;K" style="text;html=1;strokeColor=none;fillColor=none;align=center;verticalAlign=middle;whiteSpace=wrap;rounded=0;" parent="2W_x00pPGA0y_TqVCKb4-70" vertex="1">
          <mxGeometry x="10" y="80" width="180" height="30" as="geometry" />
        </mxCell>
        <mxCell id="2W_x00pPGA0y_TqVCKb4-75" value="SUM (NUMBER)" style="text;html=1;strokeColor=none;fillColor=none;align=center;verticalAlign=middle;whiteSpace=wrap;rounded=0;" parent="2W_x00pPGA0y_TqVCKb4-70" vertex="1">
          <mxGeometry x="10" y="130" width="180" height="30" as="geometry" />
        </mxCell>
        <mxCell id="2W_x00pPGA0y_TqVCKb4-76" value="SYSDATE(VARCHAR2)&lt;br&gt;&lt;br&gt;" style="text;html=1;strokeColor=none;fillColor=none;align=center;verticalAlign=middle;whiteSpace=wrap;rounded=0;" parent="2W_x00pPGA0y_TqVCKb4-70" vertex="1">
          <mxGeometry x="10" y="180" width="180" height="30" as="geometry" />
        </mxCell>
        <mxCell id="fE-3HCvfrjTYmm2UpFEF-3" value="" style="endArrow=none;html=1;rounded=0;" parent="1" edge="1">
          <mxGeometry width="50" height="50" relative="1" as="geometry">
            <mxPoint x="370" y="480" as="sourcePoint" />
            <mxPoint x="420" y="440" as="targetPoint" />
          </mxGeometry>
        </mxCell>
        <mxCell id="fE-3HCvfrjTYmm2UpFEF-4" value="" style="endArrow=none;html=1;rounded=0;entryX=0.709;entryY=0.004;entryDx=0;entryDy=0;entryPerimeter=0;" parent="1" target="2W_x00pPGA0y_TqVCKb4-70" edge="1">
          <mxGeometry width="50" height="50" relative="1" as="geometry">
            <mxPoint x="420" y="440" as="sourcePoint" />
            <mxPoint x="450" y="460" as="targetPoint" />
          </mxGeometry>
        </mxCell>
        <mxCell id="fE-3HCvfrjTYmm2UpFEF-5" value="회원정보(은행)" style="swimlane;fontStyle=0;childLayout=stackLayout;horizontal=1;startSize=30;horizontalStack=0;resizeParent=1;resizeParentMax=0;resizeLast=0;collapsible=1;marginBottom=0;whiteSpace=wrap;html=1;" parent="1" vertex="1">
          <mxGeometry x="50" y="871" width="140" height="170" as="geometry" />
        </mxCell>
        <mxCell id="fE-3HCvfrjTYmm2UpFEF-6" value="ID (PK) (VARCHAR2)" style="text;strokeColor=none;fillColor=none;align=left;verticalAlign=middle;spacingLeft=4;spacingRight=4;overflow=hidden;points=[[0,0.5],[1,0.5]];portConstraint=eastwest;rotatable=0;whiteSpace=wrap;html=1;" parent="fE-3HCvfrjTYmm2UpFEF-5" vertex="1">
          <mxGeometry y="30" width="140" height="30" as="geometry" />
        </mxCell>
        <mxCell id="fE-3HCvfrjTYmm2UpFEF-7" value="PW&lt;span style=&quot;white-space: pre;&quot;&gt;&#x9;&lt;/span&gt;(VARCHAR2)" style="text;strokeColor=none;fillColor=none;align=left;verticalAlign=middle;spacingLeft=4;spacingRight=4;overflow=hidden;points=[[0,0.5],[1,0.5]];portConstraint=eastwest;rotatable=0;whiteSpace=wrap;html=1;" parent="fE-3HCvfrjTYmm2UpFEF-5" vertex="1">
          <mxGeometry y="60" width="140" height="30" as="geometry" />
        </mxCell>
        <mxCell id="fE-3HCvfrjTYmm2UpFEF-8" value="AGE&lt;span style=&quot;white-space: pre;&quot;&gt;&#x9;&lt;/span&gt;(NUMBER)&lt;br&gt;&lt;br&gt;NAME&lt;span style=&quot;white-space: pre;&quot;&gt;&#x9;&lt;/span&gt;(VARCHAR2)" style="text;strokeColor=none;fillColor=none;align=left;verticalAlign=middle;spacingLeft=4;spacingRight=4;overflow=hidden;points=[[0,0.5],[1,0.5]];portConstraint=eastwest;rotatable=0;whiteSpace=wrap;html=1;" parent="fE-3HCvfrjTYmm2UpFEF-5" vertex="1">
          <mxGeometry y="90" width="140" height="80" as="geometry" />
        </mxCell>
        <mxCell id="fE-3HCvfrjTYmm2UpFEF-9" value="계좌내역" style="swimlane;fontStyle=0;childLayout=stackLayout;horizontal=1;startSize=30;horizontalStack=0;resizeParent=1;resizeParentMax=0;resizeLast=0;collapsible=1;marginBottom=0;whiteSpace=wrap;html=1;" parent="1" vertex="1">
          <mxGeometry x="300" y="871" width="160" height="120" as="geometry" />
        </mxCell>
        <mxCell id="fE-3HCvfrjTYmm2UpFEF-10" value="ID(FK)" style="text;strokeColor=none;fillColor=none;align=left;verticalAlign=middle;spacingLeft=4;spacingRight=4;overflow=hidden;points=[[0,0.5],[1,0.5]];portConstraint=eastwest;rotatable=0;whiteSpace=wrap;html=1;" parent="fE-3HCvfrjTYmm2UpFEF-9" vertex="1">
          <mxGeometry y="30" width="160" height="30" as="geometry" />
        </mxCell>
        <mxCell id="fE-3HCvfrjTYmm2UpFEF-11" value="계좌번호(FK)" style="text;strokeColor=none;fillColor=none;align=left;verticalAlign=middle;spacingLeft=4;spacingRight=4;overflow=hidden;points=[[0,0.5],[1,0.5]];portConstraint=eastwest;rotatable=0;whiteSpace=wrap;html=1;" parent="fE-3HCvfrjTYmm2UpFEF-9" vertex="1">
          <mxGeometry y="60" width="160" height="30" as="geometry" />
        </mxCell>
        <mxCell id="fE-3HCvfrjTYmm2UpFEF-12" value="입출금내역&lt;span style=&quot;white-space: pre;&quot;&gt;&#x9;&lt;/span&gt;&lt;br&gt;(VARCHAR2)" style="text;strokeColor=none;fillColor=none;align=left;verticalAlign=middle;spacingLeft=4;spacingRight=4;overflow=hidden;points=[[0,0.5],[1,0.5]];portConstraint=eastwest;rotatable=0;whiteSpace=wrap;html=1;" parent="fE-3HCvfrjTYmm2UpFEF-9" vertex="1">
          <mxGeometry y="90" width="160" height="30" as="geometry" />
        </mxCell>
        <mxCell id="fE-3HCvfrjTYmm2UpFEF-13" value="ACCOUNT_INFO" style="swimlane;fontStyle=0;childLayout=stackLayout;horizontal=1;startSize=30;horizontalStack=0;resizeParent=1;resizeParentMax=0;resizeLast=0;collapsible=1;marginBottom=0;whiteSpace=wrap;html=1;" parent="1" vertex="1">
          <mxGeometry x="580" y="870" width="140" height="160" as="geometry" />
        </mxCell>
        <mxCell id="fE-3HCvfrjTYmm2UpFEF-14" value="계좌번호&lt;span style=&quot;white-space: pre;&quot;&gt;&#x9;&lt;/span&gt;(VARCHAR2)&lt;br&gt;&lt;br&gt;&lt;br&gt;잔액&lt;span style=&quot;white-space: pre;&quot;&gt;&#x9;&lt;/span&gt;&lt;span style=&quot;white-space: pre;&quot;&gt;&#x9;&lt;/span&gt;(NUMBER)" style="text;strokeColor=none;fillColor=none;align=left;verticalAlign=middle;spacingLeft=4;spacingRight=4;overflow=hidden;points=[[0,0.5],[1,0.5]];portConstraint=eastwest;rotatable=0;whiteSpace=wrap;html=1;" parent="fE-3HCvfrjTYmm2UpFEF-13" vertex="1">
          <mxGeometry y="30" width="140" height="130" as="geometry" />
        </mxCell>
        <mxCell id="fE-3HCvfrjTYmm2UpFEF-15" value="" style="fontSize=12;html=1;endArrow=ERoneToMany;startArrow=ERzeroToOne;rounded=0;exitX=1.007;exitY=0.065;exitDx=0;exitDy=0;exitPerimeter=0;" parent="1" edge="1">
          <mxGeometry width="100" height="100" relative="1" as="geometry">
            <mxPoint x="190.9799999999998" y="942.9499999999998" as="sourcePoint" />
            <mxPoint x="300" y="941" as="targetPoint" />
          </mxGeometry>
        </mxCell>
        <mxCell id="fE-3HCvfrjTYmm2UpFEF-16" value="" style="fontSize=12;html=1;endArrow=ERoneToMany;startArrow=ERzeroToOne;rounded=0;entryX=1.007;entryY=0.267;entryDx=0;entryDy=0;entryPerimeter=0;exitX=-0.007;exitY=0.3;exitDx=0;exitDy=0;exitPerimeter=0;" parent="1" source="fE-3HCvfrjTYmm2UpFEF-14" target="fE-3HCvfrjTYmm2UpFEF-11" edge="1">
          <mxGeometry width="100" height="100" relative="1" as="geometry">
            <mxPoint x="540" y="941" as="sourcePoint" />
            <mxPoint x="460" y="941" as="targetPoint" />
          </mxGeometry>
        </mxCell>
      </root>
    </mxGraphModel>
  </diagram>
</mxfile>
